<svg xmlns="http://www.w3.org/2000/svg" width="1500" height="860" viewBox="0 0 1500 860" role="img" aria-label="RQ2 grader quality">
<defs>
<filter id="softShadow" x="-20%" y="-20%" width="140%" height="140%">
<feDropShadow dx="0" dy="8" stdDeviation="10" flood-color="#101828" flood-opacity="0.12"/>
</filter>
<linearGradient id="headerFade" x1="0" y1="0" x2="1" y2="0">
<stop offset="0%" stop-color="#f7f8ff"/>
<stop offset="100%" stop-color="#f2fbf8"/>
</linearGradient>
</defs>
<rect width="1500" height="860" fill="#fbfcfe"/>
<style>text{font-family:Inter,ui-sans-serif,-apple-system,BlinkMacSystemFont,"Segoe UI",Arial,sans-serif;} .title{font-size:28px;font-weight:800;fill:#17212b;} .subtitle{font-size:15px;fill:#667085;} .label{font-size:15px;fill:#344054;} .small{font-size:13px;fill:#667085;} .tiny{font-size:11px;fill:#667085;} .num{font-size:13px;font-weight:700;fill:#17212b;} .axis{stroke:#d0d5dd;stroke-width:1;} .grid{stroke:#e5e7eb;stroke-width:1;} .panelTitle{font-size:17px;font-weight:750;fill:#17212b;} .legend{font-size:14px;fill:#344054;}</style>
<text x="58.00" y="48.00" class="title" text-anchor="start">RQ2 - Automated grading quality against human assessment</text>
<text x="58.00" y="75.00" class="subtitle" text-anchor="start">Overall grading performance on Claude-generated state machines; higher is better.</text>
<line x1="335.00" y1="127.00" x2="335.00" y2="571.00" stroke="#e5e7eb" stroke-width="1" opacity="1"/>
<text x="335.00" y="605.00" class="tiny" text-anchor="middle">0%</text>
<line x1="528.00" y1="127.00" x2="528.00" y2="571.00" stroke="#e5e7eb" stroke-width="1" opacity="1"/>
<text x="528.00" y="605.00" class="tiny" text-anchor="middle">20%</text>
<line x1="721.00" y1="127.00" x2="721.00" y2="571.00" stroke="#e5e7eb" stroke-width="1" opacity="1"/>
<text x="721.00" y="605.00" class="tiny" text-anchor="middle">40%</text>
<line x1="914.00" y1="127.00" x2="914.00" y2="571.00" stroke="#e5e7eb" stroke-width="1" opacity="1"/>
<text x="914.00" y="605.00" class="tiny" text-anchor="middle">60%</text>
<line x1="1107.00" y1="127.00" x2="1107.00" y2="571.00" stroke="#e5e7eb" stroke-width="1" opacity="1"/>
<text x="1107.00" y="605.00" class="tiny" text-anchor="middle">80%</text>
<line x1="1300.00" y1="127.00" x2="1300.00" y2="571.00" stroke="#e5e7eb" stroke-width="1" opacity="1"/>
<text x="1300.00" y="605.00" class="tiny" text-anchor="middle">100%</text>
<line x1="335.00" y1="127.00" x2="335.00" y2="571.00" stroke="#d0d5dd" stroke-width="1" opacity="1"/>
<rect x="92.00" y="107.00" width="1268.00" height="120.00" rx="10.00" fill="#ffffff" stroke="#edf0f6" opacity="1" />
<text x="120.00" y="151.00" class="panelTitle" text-anchor="start">Gemini 3.1 Pro Preview</text>
<text x="120.00" y="177.00" class="small" text-anchor="start">n = 571 graded model elements</text>
<rect x="335.00" y="186.00" width="638.72" height="15.00" rx="7.00" fill="#e46b38" stroke="none" opacity="0.95" />
<text x="321.00" y="201.00" class="tiny" text-anchor="end">Macro F1</text>
<text x="983.72" y="201.00" class="num" text-anchor="start">66%</text>
<rect x="335.00" y="206.00" width="816.54" height="15.00" rx="7.00" fill="#a3adc2" stroke="none" opacity="0.65" />
<text x="321.00" y="221.00" class="tiny" text-anchor="end">Exact agreement</text>
<text x="1161.54" y="221.00" class="num" text-anchor="start">85%</text>
<rect x="335.00" y="226.00" width="621.34" height="15.00" rx="7.00" fill="#a3adc2" stroke="none" opacity="0.65" />
<text x="321.00" y="241.00" class="tiny" text-anchor="end">Macro precision</text>
<text x="966.34" y="241.00" class="num" text-anchor="start">64%</text>
<rect x="335.00" y="246.00" width="668.50" height="15.00" rx="7.00" fill="#a3adc2" stroke="none" opacity="0.65" />
<text x="321.00" y="261.00" class="tiny" text-anchor="end">Macro recall</text>
<text x="1013.50" y="261.00" class="num" text-anchor="start">69%</text>
<rect x="92.00" y="239.00" width="1268.00" height="120.00" rx="10.00" fill="#ffffff" stroke="#edf0f6" opacity="1" />
<text x="120.00" y="283.00" class="panelTitle" text-anchor="start">GPT-5.5</text>
<text x="120.00" y="309.00" class="small" text-anchor="start">n = 571 graded model elements</text>
<rect x="335.00" y="318.00" width="623.11" height="15.00" rx="7.00" fill="#0f9f8f" stroke="none" opacity="0.95" />
<text x="321.00" y="333.00" class="tiny" text-anchor="end">Macro F1</text>
<text x="968.11" y="333.00" class="num" text-anchor="start">65%</text>
<rect x="335.00" y="338.00" width="792.92" height="15.00" rx="7.00" fill="#a3adc2" stroke="none" opacity="0.65" />
<text x="321.00" y="353.00" class="tiny" text-anchor="end">Exact agreement</text>
<text x="1137.92" y="353.00" class="num" text-anchor="start">82%</text>
<rect x="335.00" y="358.00" width="621.46" height="15.00" rx="7.00" fill="#a3adc2" stroke="none" opacity="0.65" />
<text x="321.00" y="373.00" class="tiny" text-anchor="end">Macro precision</text>
<text x="966.46" y="373.00" class="num" text-anchor="start">64%</text>
<rect x="335.00" y="378.00" width="655.64" height="15.00" rx="7.00" fill="#a3adc2" stroke="none" opacity="0.65" />
<text x="321.00" y="393.00" class="tiny" text-anchor="end">Macro recall</text>
<text x="1000.64" y="393.00" class="num" text-anchor="start">68%</text>
<rect x="92.00" y="371.00" width="1268.00" height="120.00" rx="10.00" fill="#ffffff" stroke="#edf0f6" opacity="1" />
<text x="120.00" y="415.00" class="panelTitle" text-anchor="start">Claude 4.5 Sonnet</text>
<text x="120.00" y="441.00" class="small" text-anchor="start">n = 571 graded model elements</text>
<rect x="335.00" y="450.00" width="578.08" height="15.00" rx="7.00" fill="#6d5dfc" stroke="none" opacity="0.95" />
<text x="321.00" y="465.00" class="tiny" text-anchor="end">Macro F1</text>
<text x="923.08" y="465.00" class="num" text-anchor="start">60%</text>
<rect x="335.00" y="470.00" width="759.54" height="15.00" rx="7.00" fill="#a3adc2" stroke="none" opacity="0.65" />
<text x="321.00" y="485.00" class="tiny" text-anchor="end">Exact agreement</text>
<text x="1104.54" y="485.00" class="num" text-anchor="start">79%</text>
<rect x="335.00" y="490.00" width="562.68" height="15.00" rx="7.00" fill="#a3adc2" stroke="none" opacity="0.65" />
<text x="321.00" y="505.00" class="tiny" text-anchor="end">Macro precision</text>
<text x="907.68" y="505.00" class="num" text-anchor="start">58%</text>
<rect x="335.00" y="510.00" width="616.04" height="15.00" rx="7.00" fill="#a3adc2" stroke="none" opacity="0.65" />
<text x="321.00" y="525.00" class="tiny" text-anchor="end">Macro recall</text>
<text x="961.04" y="525.00" class="num" text-anchor="start">64%</text>
<text x="817.50" y="720.00" class="small" text-anchor="middle">Score</text>
<text x="750.00" y="760.00" class="small" text-anchor="middle">Data: rq2_grading_quality_summary.csv</text>
</svg>