<svg xmlns="http://www.w3.org/2000/svg" width="1400" height="760" viewBox="0 0 1400 760" role="img" aria-label="RQ1 F1 improvement">
<defs>
<filter id="softShadow" x="-20%" y="-20%" width="140%" height="140%">
<feDropShadow dx="0" dy="8" stdDeviation="10" flood-color="#101828" flood-opacity="0.12"/>
</filter>
<linearGradient id="headerFade" x1="0" y1="0" x2="1" y2="0">
<stop offset="0%" stop-color="#f7f8ff"/>
<stop offset="100%" stop-color="#f2fbf8"/>
</linearGradient>
</defs>
<rect width="1400" height="760" fill="#fbfcfe"/>
<style>text{font-family:Inter,ui-sans-serif,-apple-system,BlinkMacSystemFont,"Segoe UI",Arial,sans-serif;} .title{font-size:28px;font-weight:800;fill:#17212b;} .subtitle{font-size:15px;fill:#667085;} .label{font-size:15px;fill:#344054;} .small{font-size:13px;fill:#667085;} .tiny{font-size:11px;fill:#667085;} .num{font-size:13px;font-weight:700;fill:#17212b;} .axis{stroke:#d0d5dd;stroke-width:1;} .grid{stroke:#e5e7eb;stroke-width:1;} .panelTitle{font-size:17px;font-weight:750;fill:#17212b;} .legend{font-size:14px;fill:#344054;}</style>
<text x="58.00" y="48.00" class="title" text-anchor="start">RQ1 - Generation quality: F1 by model element</text>
<text x="58.00" y="75.00" class="subtitle" text-anchor="start">Human assessment of Claude-generated state machines; two-stage prompting improves F1 for most model elements.</text>
<rect x="58.00" y="101.00" width="20.00" height="12.00" rx="6.00" fill="#4f46e5" stroke="none" opacity="1" />
<text x="86.00" y="112.00" class="legend" text-anchor="start">One-stage</text>
<rect x="181.00" y="101.00" width="20.00" height="12.00" rx="6.00" fill="#059669" stroke="none" opacity="1" />
<text x="209.00" y="112.00" class="legend" text-anchor="start">Two-stage</text>
<line x1="220.00" y1="145.00" x2="220.00" y2="647.00" stroke="#e5e7eb" stroke-width="1" opacity="1"/>
<text x="220.00" y="683.00" class="tiny" text-anchor="middle">40%</text>
<line x1="390.00" y1="145.00" x2="390.00" y2="647.00" stroke="#e5e7eb" stroke-width="1" opacity="1"/>
<text x="390.00" y="683.00" class="tiny" text-anchor="middle">50%</text>
<line x1="560.00" y1="145.00" x2="560.00" y2="647.00" stroke="#e5e7eb" stroke-width="1" opacity="1"/>
<text x="560.00" y="683.00" class="tiny" text-anchor="middle">60%</text>
<line x1="730.00" y1="145.00" x2="730.00" y2="647.00" stroke="#e5e7eb" stroke-width="1" opacity="1"/>
<text x="730.00" y="683.00" class="tiny" text-anchor="middle">70%</text>
<line x1="900.00" y1="145.00" x2="900.00" y2="647.00" stroke="#e5e7eb" stroke-width="1" opacity="1"/>
<text x="900.00" y="683.00" class="tiny" text-anchor="middle">80%</text>
<line x1="1070.00" y1="145.00" x2="1070.00" y2="647.00" stroke="#e5e7eb" stroke-width="1" opacity="1"/>
<text x="1070.00" y="683.00" class="tiny" text-anchor="middle">90%</text>
<line x1="1240.00" y1="145.00" x2="1240.00" y2="647.00" stroke="#e5e7eb" stroke-width="1" opacity="1"/>
<text x="1240.00" y="683.00" class="tiny" text-anchor="middle">100%</text>
<line x1="220.00" y1="145.00" x2="220.00" y2="647.00" stroke="#d0d5dd" stroke-width="1" opacity="1"/>
<text x="58.00" y="171.00" class="label" text-anchor="start">Composite</text>
<line x1="1114.89" y1="165.00" x2="1197.50" y2="165.00" stroke="#b8c0d3" stroke-width="4" opacity="1"/>
<circle cx="1114.89" cy="165.00" r="9.00" fill="#4f46e5" stroke="white" stroke-width="2" opacity="1"/>
<circle cx="1197.50" cy="165.00" r="9.00" fill="#059669" stroke="white" stroke-width="2" opacity="1"/>
<text x="1268.00" y="170.00" class="num" text-anchor="start">98%</text>
<text x="1332.00" y="170.00" class="tiny" text-anchor="start" fill="#059669">(+0.05)</text>
<text x="58.00" y="233.00" class="label" text-anchor="start">Region</text>
<line x1="1051.11" y1="227.00" x2="1126.67" y2="227.00" stroke="#b8c0d3" stroke-width="4" opacity="1"/>
<circle cx="1051.11" cy="227.00" r="9.00" fill="#4f46e5" stroke="white" stroke-width="2" opacity="1"/>
<circle cx="1126.67" cy="227.00" r="9.00" fill="#059669" stroke="white" stroke-width="2" opacity="1"/>
<text x="1268.00" y="232.00" class="num" text-anchor="start">93%</text>
<text x="1332.00" y="232.00" class="tiny" text-anchor="start" fill="#059669">(+0.04)</text>
<text x="58.00" y="295.00" class="label" text-anchor="start">State</text>
<line x1="1004.33" y1="289.00" x2="1112.91" y2="289.00" stroke="#b8c0d3" stroke-width="4" opacity="1"/>
<circle cx="1004.33" cy="289.00" r="9.00" fill="#4f46e5" stroke="white" stroke-width="2" opacity="1"/>
<circle cx="1112.91" cy="289.00" r="9.00" fill="#059669" stroke="white" stroke-width="2" opacity="1"/>
<text x="1268.00" y="294.00" class="num" text-anchor="start">93%</text>
<text x="1332.00" y="294.00" class="tiny" text-anchor="start" fill="#059669">(+0.06)</text>
<text x="58.00" y="357.00" class="label" text-anchor="start">Transition</text>
<line x1="879.24" y1="351.00" x2="1100.94" y2="351.00" stroke="#b8c0d3" stroke-width="4" opacity="1"/>
<circle cx="879.24" cy="351.00" r="9.00" fill="#4f46e5" stroke="white" stroke-width="2" opacity="1"/>
<circle cx="1100.94" cy="351.00" r="9.00" fill="#059669" stroke="white" stroke-width="2" opacity="1"/>
<text x="1268.00" y="356.00" class="num" text-anchor="start">92%</text>
<text x="1332.00" y="356.00" class="tiny" text-anchor="start" fill="#059669">(+0.13)</text>
<text x="58.00" y="419.00" class="label" text-anchor="start">Overall</text>
<line x1="884.24" y1="413.00" x2="1074.69" y2="413.00" stroke="#b8c0d3" stroke-width="4" opacity="1"/>
<circle cx="884.24" cy="413.00" r="9.00" fill="#4f46e5" stroke="white" stroke-width="2" opacity="1"/>
<circle cx="1074.69" cy="413.00" r="9.00" fill="#059669" stroke="white" stroke-width="2" opacity="1"/>
<text x="1268.00" y="418.00" class="num" text-anchor="start">90%</text>
<text x="1332.00" y="418.00" class="tiny" text-anchor="start" fill="#059669">(+0.11)</text>
<text x="58.00" y="481.00" class="label" text-anchor="start">History</text>
<line x1="1240.00" y1="475.00" x2="1070.00" y2="475.00" stroke="#b8c0d3" stroke-width="4" opacity="1"/>
<circle cx="1240.00" cy="475.00" r="9.00" fill="#4f46e5" stroke="white" stroke-width="2" opacity="1"/>
<circle cx="1070.00" cy="475.00" r="9.00" fill="#059669" stroke="white" stroke-width="2" opacity="1"/>
<text x="1268.00" y="480.00" class="num" text-anchor="start">90%</text>
<text x="1332.00" y="480.00" class="tiny" text-anchor="start" fill="#d4515c">(-0.10)</text>
<text x="58.00" y="543.00" class="label" text-anchor="start">Guard</text>
<line x1="839.71" y1="537.00" x2="1052.12" y2="537.00" stroke="#b8c0d3" stroke-width="4" opacity="1"/>
<circle cx="839.71" cy="537.00" r="9.00" fill="#4f46e5" stroke="white" stroke-width="2" opacity="1"/>
<circle cx="1052.12" cy="537.00" r="9.00" fill="#059669" stroke="white" stroke-width="2" opacity="1"/>
<text x="1268.00" y="542.00" class="num" text-anchor="start">89%</text>
<text x="1332.00" y="542.00" class="tiny" text-anchor="start" fill="#059669">(+0.12)</text>
<text x="58.00" y="605.00" class="label" text-anchor="start">Action</text>
<line x1="692.79" y1="599.00" x2="928.67" y2="599.00" stroke="#b8c0d3" stroke-width="4" opacity="1"/>
<circle cx="692.79" cy="599.00" r="9.00" fill="#4f46e5" stroke="white" stroke-width="2" opacity="1"/>
<circle cx="928.67" cy="599.00" r="9.00" fill="#059669" stroke="white" stroke-width="2" opacity="1"/>
<text x="1268.00" y="604.00" class="num" text-anchor="start">82%</text>
<text x="1332.00" y="604.00" class="tiny" text-anchor="start" fill="#059669">(+0.14)</text>
<text x="1268.00" y="131.00" class="tiny" text-anchor="start">Two-stage F1</text>
<text x="1332.00" y="131.00" class="tiny" text-anchor="start">Delta</text>
<text x="730.00" y="705.00" class="small" text-anchor="middle">F1 score</text>
<text x="700.00" y="735.00" class="small" text-anchor="middle">Data: rq1_generation_quality_summary.csv</text>
</svg>